<?xml version="1.0" encoding="utf-8"?>
<!-- Generator: Adobe Illustrator 23.0.3, SVG Export Plug-In . SVG Version: 6.00 Build 0)  -->
<svg version="1.1" id="Layer_1" xmlns="http://www.w3.org/2000/svg" xmlns:xlink="http://www.w3.org/1999/xlink" x="0px" y="0px"
	 viewBox="0 0 1200 940" style="enable-background:new 0 0 1200 940;" xml:space="preserve">
<style type="text/css">
	.st0{fill:#37346E;}
	.st1{fill:#F3F3F3;}
	.st2{fill:none;stroke:#FFFFFF;stroke-width:12.98;stroke-linecap:round;stroke-linejoin:round;}
	.st3{fill:#E49D75;}
	.st4{fill:#B0D344;}
	.st5{opacity:0.27;enable-background:new    ;}
	.st6{fill:#B6EB1A;}
	.st7{fill:#FD806A;}
	.st8{fill:#D18C65;}
	.st9{fill:#F79C8F;}
	.st10{fill:#FFC88E;}
	.st11{fill:none;stroke:#9D9D9D;stroke-width:5.79;stroke-linecap:round;stroke-linejoin:round;}
	.st12{fill:none;stroke:#DFDFDF;stroke-width:12.98;stroke-linecap:round;stroke-linejoin:round;}
</style>
<g id="Layer_3">
	<path class="st0" d="M523.5,102.7c16.5,0.9,40.2,14,40.2,36.9s-23.8,31.9-45.3,35.6c14.5,17.3,20.5,20.7,19,28.1
		s-14.9,27.9-16,51.4S456.6,407.2,444.5,411s11.8,27.6-71.7,30.3c-22.2,0-62.6-33-62.6-76c-1-93.7,96.4-111.5,150.6-216.1
		C485.7,101.1,515.8,102.3,523.5,102.7z"/>
</g>
<path class="st1" d="M284.8,544.1h717v308.4h-717V544.1z"/>
<path class="st2" d="M369.2,617.1h570.7"/>
<path class="st3" d="M725.9,626.9l20.2-11.7l14.3,24.8l-20.2,11.7L725.9,626.9z"/>
<path class="st2" d="M415.7,699h449.1"/>
<path class="st3" d="M575.2,673.9l21.1,10.1L584,709.8l-21.1-10.1L575.2,673.9z"/>
<path class="st4" d="M692.4,454.8c20.5,0,50.7,122.8,63.6,158.9c-2.7,7.5-18.1,19.3-26.5,19.3c-16.3-27.3-52.8-85.8-59.2-94.8
	C665.1,531,671.9,454.8,692.4,454.8z"/>
<path class="st5" d="M684.7,212.4c3.5-2.2,1.8-0.7,4.6-4.8"/>
<path class="st6" d="M457.3,432.3c-17.8,0-32.4-3.8-32.4,38s45.7,76.7,99.9,76.7s78.2-1.4,83.1-2.6c1.5,13.8-30.5,108.6-33.9,133
	c2.5,6.5,18.3,14.6,25,14.6s95.8-144.8,93.5-234.3c0.3-14-51.2-17.9-83.7-17.9s-101.8,3.8-110.6,3.8"/>
<path class="st7" d="M431.1,436.4c-2.3-9.3-14.4-209.4,58.6-205.8s72.3,181.9,64,210C520.4,454.7,433.5,446.2,431.1,436.4z"/>
<path class="st8" d="M514.4,214.7c-1.2,2.7-7.4,17.3-8.5,23.2s-32.6-1.6-30.8-4.5c10.4-17.6,12.1-36,13.8-45.2
	C490.4,179.7,522,196.6,514.4,214.7z"/>
<path class="st3" d="M505.4,332.2l-45.1,4.8c-3.1,3.8-1.7,12.7-1.8,17.3c-0.2,17,0.6,36,10.8,50.3c4,5.6,10.5,11,17,10.9
	c10.1,4,27,8.6,27,8.6l25.6,5.6c0,0,43.1,7.7,64.4,7.2c7.1-0.2,14.3-1,21.4-0.8c4.1,0.1,10.6,1.4,14.5,0c1.1-0.4,0.8-2.9,0.6-3.8
	c-0.9-3.4-4.2-5.8-7.1-7.2c-6.9-3.4-10.8-1.3-17.9-1.1c-5.8,0.1-12.7-2.9-22.8-6.8c-11.9-4.7-25.5-10.3-37.6-14.4
	c-13.8-4.7-27.9-9.7-41.4-15.2c-2.7-1.1-5.5-1.9-8.3-2.8c1.3-7.3,2-14.6,2.2-22c0.3-8,0.4-16.4-0.7-24.3
	C505.7,336.5,506.2,334.1,505.4,332.2z"/>
<path class="st9" d="M448.3,338.3c-7.7-20.4-1-84.1,23.9-88.2c34.6-5.1,45,75.3,41.6,84.8C507.6,338.5,473.3,350.6,448.3,338.3z"/>
<path class="st3" d="M551.4,146c-18.6,17.8-43.1,28-68.9,28.8c-1.2,1.5-1.9,3.4-1.9,5.3c0,4.4,3.3,8.2,7.7,8.9
	c2.2,13.6,9.4,24.3,20.1,27.5c17,5.2,36.4-10.8,43.3-35.6C555.2,168.3,554.9,155.9,551.4,146z"/>
<path class="st10" d="M577.9,438.3c18,0,83-0.5,94.9-0.5"/>
<path class="st11" d="M566.8,439.2c19,0,84.6-1.5,95.5-1.5c8.4-13,47.6-81.5,50.2-86.7"/>
<path class="st0" d="M566,693.4l-13.7,26.2l69.8,36.5l3.9-7.4l-34.6-42L566,693.4z"/>
<path class="st0" d="M736,645.1l15.2,25.4l67.5-40.6l-4.3-7.2l-53.9,7.6L736,645.1z"/>
<path class="st12" d="M363.3,663.8L318.5,619l44.8-44.8"/>
<path class="st12" d="M919.2,823.8L964,779l-44.8-44.8"/>
<path class="st2" d="M369.2,778.5h514.5"/>
</svg>
