<?xml version="1.0" encoding="utf-8"?>
<!-- Generator: Adobe Illustrator 23.0.3, SVG Export Plug-In . SVG Version: 6.00 Build 0)  -->
<svg version="1.1" id="a1a4a747-966c-40c1-8b1e-379ad2323333"
	 xmlns="http://www.w3.org/2000/svg" xmlns:xlink="http://www.w3.org/1999/xlink" x="0px" y="0px" viewBox="0 0 1034.8 558.7"
	 style="enable-background:new 0 0 1034.8 558.7;" xml:space="preserve">
<style type="text/css">
	.st0{fill:#36334A;}
	.st1{opacity:0.1;enable-background:new    ;}
	.st2{fill:#3F3D56;}
	.st3{fill:#B6EB1A;}
	.st4{opacity:0.2;enable-background:new    ;}
	.st5{fill:#37346E;}
	.st6{opacity:0.2;fill:#B6EB1A;enable-background:new    ;}
	.st7{fill:#F2F2F2;}
	.st8{fill:#2C2C59;}
	.st9{fill:#FD806A;}
	.st10{fill:#FF6584;}
	.st11{fill:#FBBEBE;}
	.st12{fill:#696880;}
	.st13{fill:none;stroke:#3F3D56;stroke-width:4;stroke-miterlimit:10;}
	.st14{fill:#656380;}
</style>
<title>fast car</title>
<path class="st0" d="M947.2,421.2c0,1.7,0,3.4-0.1,5.1c-0.3,6.6-1.1,13.2-2.4,19.7c-6.6,32.1-25.5,57.1-49.4,64.4
	c-4.7,1.5-9.7,2.2-14.6,2.2c-36.7,0-66.5-41-66.5-91.5s29.8-91.5,66.5-91.5c34.5,0,62.8,36.1,66.2,82.2
	C947.1,415,947.2,418.1,947.2,421.2z"/>
<path class="st1" d="M947.1,426.4c-0.3,6.6-1.1,13.2-2.4,19.7c-6.6,32.1-25.5,57.1-49.4,64.4c-18.5-8.5-32.1-40.3-32.1-78.3
	c0-44.5,18.8-80.5,42-80.5c19.5,0,35.8,25.4,40.6,59.9C946.5,416.4,946.9,421.3,947.1,426.4z"/>
<path class="st2" d="M613.2,218.7c0,0,180-37,275-3c0,0,14,7,0,19c0,0,13.2,14-9.9,19l-91.8,5.6l-173.3-17.6V218.7z"/>
<path class="st1" d="M644.8,223.4c0,0,154.1-31.7,235.5-2.6c0,0,12,6,0,16.3c0,0,11.3,12-8.5,16.3l-78.6,4.8l-148.3-15.1V223.4z"/>
<path class="st3" d="M820.2,278.7l-12-24c0,0,5.3-24.3-37.5-31.4c-2.4-10.6-13.1-18.6-26-18.6c-12.6,0-23.1,7.6-25.8,17.8
	c-6.1,0.5-12.7,1.2-19.7,2.2l-9.8,52.4l-1.2-2.4c0,0,6.2-28.7-49.8-32.9c3.1-3.7,4.7-8.3,4.8-13.1c0-12.7-11.9-23-26.5-23
	s-26.5,10.3-26.5,23c0,5.2,2,10.2,5.6,14.1c-5.2,0.5-10.8,1.1-16.6,1.9l-11,59l51,7l81-12l-7.2-14.3l46.2,6.3L820.2,278.7z"/>
<path class="st4" d="M820.2,278.7l-12-24c0,0,5.3-24.3-37.5-31.4c-2.4-10.6-13.1-18.6-26-18.6c-12.6,0-23.1,7.6-25.8,17.8
	c-6.1,0.5-12.7,1.2-19.7,2.2l-9.8,52.4l-1.2-2.4c0,0,6.2-28.7-49.8-32.9c3.1-3.7,4.7-8.3,4.8-13.1c0-12.7-11.9-23-26.5-23
	s-26.5,10.3-26.5,23c0,5.2,2,10.2,5.6,14.1c-5.2,0.5-10.8,1.1-16.6,1.9l-11,59l51,7l81-12l-7.2-14.3l46.2,6.3L820.2,278.7z"/>
<path class="st3" d="M648.2,225.6c0,0-8-44.9,29-45.9s25,65,25,65s28,6,30,17c2,11-97,14-97,14L648.2,225.6z"/>
<path class="st0" d="M583.2,462.7c0,53-39.4,96-88,96s-88-43-88-96s39.9-104.5,88.5-104.5S583.2,409.7,583.2,462.7z"/>
<ellipse class="st1" cx="495.2" cy="466.7" rx="70" ry="81"/>
<ellipse class="st0" cx="108.2" cy="453.7" rx="88" ry="96"/>
<path class="st0" d="M258.2,224.7c0,0-41,2-39,24c2,22,35,6,35,6L258.2,224.7z"/>
<path class="st5" d="M599.4,261.4l16.9-112.6c0,0,4-14-50-14c0,0-173-11-217,7c0,0-51,19-122,117
	C227.2,258.7,592.4,267.4,599.4,261.4z"/>
<path class="st0" d="M593.2,143.7l-31,123l-19.4-0.5l-92-2.2l-205.2-5c-0.6-9.7,96.6-110.3,96.6-110.3L593.2,143.7z"/>
<path class="st6" d="M450.8,264l8.4-32.4c0,0-8-44.9,29-45.9s25,65,25,65s25.5,5.5,29.6,15.5L450.8,264z"/>
<path class="st5" d="M947.8,414.2c-6-58-43.5-70.5-43.5-70.5c-36-2-60,135-60,135l-277,25c0,0,9.5-116.5-57.5-135.5
	s-84.5,117.5-87.5,136.5c-3,19-404-2-415-10s-7-85-4-91s11-33,11-33c0-6.4,3.1-14.6,5.6-20.2c1.8-4,3.4-6.8,3.4-6.8
	c8.7-49.3,53.8-61.2,56.8-62h0.2c12-12,123-20,123-20l42-8l341.5,6.7l14.5,0.3l173.6-8.3l117.4-5.6c27,0,41,68,41,68
	C958.2,374.7,947.8,414.2,947.8,414.2z"/>
<ellipse transform="matrix(0.9277 -0.3733 0.3733 0.9277 -94.5294 162.6822)" class="st1" cx="372.8" cy="325.4" rx="51.5" ry="32.2"/>
<ellipse transform="matrix(0.9277 -0.3733 0.3733 0.9277 -93.179 161.6466)" class="st7" cx="370.8" cy="321.4" rx="51.5" ry="32.2"/>
<path class="st1" d="M82.1,283.7c-0.5,11-5.4,24.9-14.3,38.2c-14.3,21.5-33.8,34.2-45.9,30.5c1.8-4,3.4-6.8,3.4-6.8
	C33.9,296.4,79.1,284.5,82.1,283.7z"/>
<path class="st7" d="M79.1,281.7c-0.5,11-5.4,24.9-14.3,38.2c-14.3,21.5-33.8,34.2-45.9,30.5c1.8-4,3.4-6.8,3.4-6.8
	C30.9,294.4,76.1,282.5,79.1,281.7z"/>
<polygon class="st0" points="219.2,311.7 140.2,311.7 136.2,300.7 232.2,300.7 "/>
<rect x="71.2" y="392.7" class="st0" width="130" height="38"/>
<circle class="st1" cx="341.2" cy="449.7" r="18"/>
<circle class="st7" cx="339.2" cy="446.7" r="18"/>
<ellipse class="st1" cx="14.2" cy="435.7" rx="9" ry="19"/>
<ellipse class="st7" cx="11.2" cy="434.7" rx="9" ry="19"/>
<path class="st8" d="M804.2,354.7c-11,34-12,87-12,87l-4,14l-195,22c0,0,1-98,4-144c2.1-32.5-5.7-59.9-10.5-73.3l14.5,0.3l173.6-8.3
	C803.8,272.7,814.1,324.2,804.2,354.7z"/>
<path class="st7" d="M759.8,293.4c-2.7,0.2-4.8,2.5-4.6,5.2c0,0.2,0,0.3,0.1,0.5c0.2,1.1,0.9,2.1,2,2.6c3.2,1.6,24.7-2,32.9-3.4
	c2.5-0.4,4.4-2.4,4.6-4.9c0.1-1.4-0.4-2.6-2.5-2.6L759.8,293.4z"/>
<path class="st0" d="M586.2,256.7c0,0,5,22,29,15l8-31l-16-9L586.2,256.7z"/>
<path class="st0" d="M615.6,212c11-6.5,28.5-12.2,45.7,1.5c7.4,5.8,9.8,16,5.9,24.5c-5.7,12.2-19.1,25.5-50.4,9.6
	c-3.1-1.6-5.7-3.9-7.6-6.7l-0.2-0.2c-6.2-9.4-3.6-21.9,5.7-28.1C615.1,212.4,615.4,212.2,615.6,212z"/>
<circle class="st7" cx="495.8" cy="462.2" r="20"/>
<ellipse class="st7" cx="908.8" cy="426.2" rx="11" ry="20"/>
<path class="st0" d="M494.2,400.7h2c6.6,0,12,5.4,12,12v11c0,6.6-5.4,12-12,12h-2c-6.6,0-12-5.4-12-12v-11
	C482.2,406.1,487.6,400.7,494.2,400.7z"/>
<path class="st0" d="M908.8,362.2L908.8,362.2c3.9,0,7,3.1,7,7v16c0,6.6-5.4,12-12,12l0,0c-3.9,0-7-3.1-7-7v-16
	C896.8,367.6,902.1,362.2,908.8,362.2z"/>
<path class="st0" d="M908.8,490.2L908.8,490.2c-6.6,0-12-5.4-12-12v-11c0-6.6,5.4-12,12-12l0,0c6.6,0,6,5.4,6,12v11
	C914.7,484.8,915.4,490.2,908.8,490.2z"/>
<path class="st0" d="M878.8,408.2L878.8,408.2c6.6,0,12,5.4,12,12v15c0,4.4-3.6,8-8,8l0,0c-6.6,0-12-5.4-12-12v-15
	C870.8,411.8,874.3,408.2,878.8,408.2z"/>
<path class="st0" d="M947.2,421.2c0,1.7,0,3.4-0.1,5.1c-0.3,6.6-1.1,13.2-2.4,19.7c-0.7,0.1-1.3,0.2-2,0.2c-6.6,0-12-5.4-12-12v-11
	c0-6.6,5.4-12,12-12c1,0,2.1,0.1,3.1,0.4c0.4,0.1,0.7,0.2,1.1,0.3C947.1,415,947.2,418.1,947.2,421.2z"/>
<path class="st0" d="M544.8,443.2h2c6.6,0,12,5.4,12,12v11c0,6.6-5.4,12-12,12h-2c-6.6,0-12-5.4-12-12v-11
	C532.8,448.6,538.1,443.2,544.8,443.2z"/>
<path class="st0" d="M446.8,443.2h2c6.6,0,12,5.4,12,12v11c0,6.6-5.4,12-12,12h-2c-6.6,0-12-5.4-12-12v-11
	C434.8,448.6,440.1,443.2,446.8,443.2z"/>
<path class="st0" d="M494.8,495.2h2c6.6,0,12,5.4,12,12v11c0,6.6-5.4,12-12,12h-2c-6.6,0-12-5.4-12-12v-11
	C482.8,500.6,488.1,495.2,494.8,495.2z"/>
<path class="st9" d="M845,58c0,1.9-0.3,3.8-1,5.6c-3.1,8.6-12.6,13.1-21.2,10c-4.5-1.6-8.1-5.1-9.9-9.6c-0.8-1.9-1.1-3.9-1.1-6
	c0-9.2,7.4-16.6,16.6-16.6C837.5,41.4,845,48.9,845,58L845,58z"/>
<path class="st9" d="M815.2,62.1c-4.4-8-1.6-18.1,6.5-22.6c0,0,0,0,0,0c1.9-1,3.9-1.7,6-2c-9.2-0.3-16.9,6.8-17.2,16
	c-0.3,9.2,6.8,16.9,16,17.2c0.9,0,1.7,0,2.6-0.1C823.2,70.4,818,67.2,815.2,62.1z"/>
<rect x="807.7" y="81.1" class="st10" width="44.5" height="69.4"/>
<rect x="808.7" y="79.1" class="st1" width="44.5" height="69.4"/>
<path class="st11" d="M737.4,332.8c0,0-4.7,13-16,14.8s-17.8,4.7-17.8,4.7l26.7,17.2l14.2-1.8c0,0,1.8-18.4,7.7-22.5
	S737.4,332.8,737.4,332.8z"/>
<path class="st11" d="M930.1,332.8c0,0,4.7,13,16,14.8s17.8,4.8,17.8,4.8l-26.7,17.2l-14.2-1.8c0,0-1.8-18.4-7.7-22.5
	S930.1,332.8,930.1,332.8z"/>
<path class="st12" d="M800.2,217.8c0,0-7.1,3.6-9.5,10.7c0,0-13,4.1-20.2,15.4c0,0-8.9,9.5-10.1,14.2s-14.8,33.2-14.8,33.2
	s-13.6,44.5-20.8,49.2c0,0,22.5-4.8,26.7,17.8c0,0,5.3,0,11.3-20.8s20.1-46.2,20.1-46.2s4.8-17.8,8.9-20.8s10.7-16.6,16.6-13
	s45.1-0.6,45.1-0.6s23.1,10.7,23.7,17.8s4.8,7.7,5.3,13.6s22.5,52.8,22.5,52.8s4.2,13,5.3,16c0,0,13-31.4,30.2-13.6
	c0,0-0.6-11.9-5.9-19s-28.5-62.9-28.5-62.9s-2.4-8.3-4.7-10.7s-20.8-21.3-27.3-21.3c0,0-3.6-8.9-7.7-10.1L800.2,217.8z"/>
<path class="st12" d="M746.9,363.6c-9.4,3.8-20.1,2.3-28.2-3.8c-3.9-3-8.1-5.4-12.6-7.3c-6.3-2.5-13.8-4.4-16.1-0.2
	c-4.2,7.7,50.4,26.7,50.4,26.7S747.5,374.9,746.9,363.6z"/>
<path class="st12" d="M920.6,363.6c9.4,3.8,20.1,2.3,28.2-3.8c3.9-3,8.1-5.4,12.6-7.3c6.3-2.5,13.8-4.4,16.1-0.2
	c4.2,7.7-50.4,26.7-50.4,26.7S920,374.9,920.6,363.6z"/>
<path class="st11" d="M819.6,120.3c-0.2,2.1-0.9,4.3-2.7,5.4c-1.4,0.9-3.3,0.8-4.9,1.2c-3.5,0.9-6.4,3.4-7.8,6.8
	c-1.3,3.4-1.6,7-0.7,10.5c0.4,1.7,0.9,3.4,1.5,5.1c1.8,4.9,3.8,9.8,7.1,13.9c2.8,3.2,5.9,6.2,9.3,8.8c2.1,1.7,4.3,3.5,6.9,4.3
	c1.8,0.5,3.6,0.7,5.4,0.7c2.2,0.1,4.6,0.2,6.6-0.9c3-1.7,3.9-5.6,5.5-8.6c1.4-2.6,3.5-4.8,4.7-7.5c0.9-2.1,1.6-4.3,2-6.5l2.8-12.3
	c1-4.5,1.9-9.5-0.6-13.3c-0.2-0.3-0.4-0.6-0.7-0.8c-0.5-0.2-1-0.2-1.5-0.2c-3.2,0.2-6.4-0.5-9.2-2.1c-0.4-0.2-0.8-0.5-1.2-0.9
	c-0.4-0.6-0.7-1.4-0.7-2.1c-0.3-1.5-0.7-3-1.3-4.5c-0.2-0.5-0.5-1-0.9-1.3c-0.4-0.3-0.9-0.4-1.4-0.5c-4.3-0.7-8.6-1.2-12.9-1.4
	c-1.4-0.1-3.6-0.6-4.5,0.6S819.8,118.8,819.6,120.3z"/>
<path class="st1" d="M819.6,120.3c-0.2,2.1-0.9,4.3-2.7,5.4c-1.4,0.9-3.3,0.8-4.9,1.2c-3.5,0.9-6.4,3.4-7.8,6.8
	c-1.3,3.4-1.6,7-0.7,10.5c0.4,1.7,0.9,3.4,1.5,5.1c1.8,4.9,3.8,9.8,7.1,13.9c2.8,3.2,5.9,6.2,9.3,8.8c2.1,1.7,4.3,3.5,6.9,4.3
	c1.8,0.5,3.6,0.7,5.4,0.7c2.2,0.1,4.6,0.2,6.6-0.9c3-1.7,3.9-5.6,5.5-8.6c1.4-2.6,3.5-4.8,4.7-7.5c0.9-2.1,1.6-4.3,2-6.5l2.8-12.3
	c1-4.5,1.9-9.5-0.6-13.3c-0.2-0.3-0.4-0.6-0.7-0.8c-0.5-0.2-1-0.2-1.5-0.2c-3.2,0.2-6.4-0.5-9.2-2.1c-0.4-0.2-0.8-0.5-1.2-0.9
	c-0.4-0.6-0.7-1.4-0.7-2.1c-0.3-1.5-0.7-3-1.3-4.5c-0.2-0.5-0.5-1-0.9-1.3c-0.4-0.3-0.9-0.4-1.4-0.5c-4.3-0.7-8.6-1.2-12.9-1.4
	c-1.4-0.1-3.6-0.6-4.5,0.6S819.8,118.8,819.6,120.3z"/>
<path class="st7" d="M811.6,127.3c-2.3-0.7-4.7-1.1-7.1-1.1c-5.7-0.1-11.8,1.8-15.1,6.5c-2.2,3.4-3.1,7.5-2.3,11.5
	c0.8,3.9,2.6,7.6,5.2,10.7c1.5,1.6,2.9,3.4,4,5.2c1.6,3,1.6,6.6,2,10c1,8.1,4.5,15.8,5.8,23.8s0.2,17.4-6.2,22.6
	c-1.1,0.9-2.4,1.8-2.5,3.1c-0.2,2.2,2.7,3.1,4.9,3.3c6.5,0.6,13.3,1.2,19.6-0.5c2.6-0.7,5.2-1.8,7.8-2.3c6.8-1.3,13.7,1.3,20.5,2.6
	c4.9,0.8,9.9,1.2,14.9,1.2c1.2,0.1,2.3-0.1,3.4-0.5c1.1-0.4,1.8-1.5,1.7-2.7c-0.2-0.8-0.6-1.4-1.2-2c-3.4-4.3-4.5-9.9-5.4-15.3
	l-3.1-18.1c-1.7-9.7-3.3-20.2,1.3-28.9c3.3-6.2,9.4-10.6,12.8-16.8c1.2-1.9,1.8-4.1,1.6-6.3c-0.5-3.1-3.3-5.3-6.2-6.6
	c-5.5-2.5-11.7-2.7-17.4-0.6c0.1,4.3-1,8.7-1.7,13l-1.2,7c-0.6,4.1-1.5,8.2-2.7,12.2c-0.4,1.6-1.2,3.1-2.2,4.4
	c-1.1,1.2-2.4,2.1-3.8,2.8c-3.2,1.5-6.6,2.3-10.2,2.3c-1.5,0-3-0.2-4.5-0.7c-2.4-0.9-4.3-2.6-6.2-4.4c-0.6-0.5-1.2-1.1-1.6-1.8
	c-0.5-0.8-0.9-1.7-1.1-2.7c-0.8-2.4-1.4-4.9-1.9-7.5c-0.3-1.9-0.4-3.9-0.5-5.9C812.8,139.4,812.8,132.9,811.6,127.3z"/>
<path class="st11" d="M805.6,242.1c0,0-2.4,31.4,12.5,36.8s1.8-26.1,1.8-26.1l-4.7-9.5L805.6,242.1z"/>
<path class="st11" d="M856,242.1c0,0,2.4,31.4-12.5,36.8s-1.8-26.1-1.8-26.1l4.7-9.5L856,242.1z"/>
<path class="st1" d="M792.5,137.2l-4.7,7.7c0,0,4.2,26.7,4.7,31.4c0.5,3.4,1.3,6.8,2.4,10.1c0,0,0.6,14.2,0.6,19.6s3,14.2,3,14.2
	c0.4,5,1.4,10,3,14.8c2.4,6.5,4.8,14.2,4.8,14.2s3-8.3,14.8,4.1c2.7-2.8,2.7-7.3,0-10.1c0,0-3.6-16-3.6-24.3s-6.5-48-6.5-48
	S806.8,125.9,792.5,137.2z"/>
<path class="st7" d="M791.4,136.6l-4.7,7.7c0,0,4.2,26.7,4.7,31.4c0.5,3.4,1.3,6.8,2.4,10.1c0,0,0.6,14.2,0.6,19.6s3,14.2,3,14.2
	c0.4,5,1.4,10,3,14.8c2.4,6.5,4.7,14.2,4.7,14.2s3-8.3,14.8,4.1c2.8-2.8,2.8-7.3,0-10.1c0,0-3.6-16-3.6-24.3s-6.5-48-6.5-48
	S805.6,125.3,791.4,136.6z"/>
<path class="st1" d="M869.6,132.4l3,3.5c0,0,3.5,20.2-4.2,45.7l-2.4,23.1c0,0-4.2,19.6-4.8,24.3s-0.6,5.3-1.8,7.1
	c-0.8,0.9-0.8,2.1,0,3l-3.6,13c0,0-5.3-6.5-16,1.8c0,0-3-4.8-0.6-8.9s2.4-5.9,1.8-7.1s2.4-7.1,2.4-8.3s4.2-28.5,4.2-28.5
	s1.8-26.7,3.6-35.6c1.1-5.5,1.1-17.7,0.9-26.2c-0.2-8.9,10.6-13.8,17-7.5C869.3,132.1,869.4,132.2,869.6,132.4z"/>
<path class="st7" d="M871.4,131.2l3,3.5c0,0,3.5,20.2-4.2,45.7l-2.4,23.1c0,0-4.2,19.6-4.8,24.3s-0.6,5.3-1.8,7.1
	c-0.7,0.9-0.7,2.1,0,3l-3.5,13c0,0-5.3-6.5-16,1.8c0,0-3-4.7-0.6-8.9s2.4-5.9,1.8-7.1s2.4-7.1,2.4-8.3s4.2-28.5,4.2-28.5
	s1.8-26.7,3.5-35.6s0.6-35.6,0.6-35.6S863.1,122.3,871.4,131.2z"/>
<circle class="st11" cx="831.7" cy="99.2" r="23.7"/>
<path class="st1" d="M844,63.6c-3.1,8.6-12.6,13.1-21.2,10c-4.5-1.6-8.1-5.1-9.9-9.6c9.2-3.7,18.7-0.4,18.7-0.4
	C836.4,62,840.5,62.1,844,63.6z"/>
<path class="st9" d="M831.7,64.8c0,0-45.7-16-34.4,61.7c0,0,10.1,6.5,17.8,2.4c0,0-5.3-54,15.4-51.6s17.2,50.4,17.2,50.4
	s11.9,3.6,15.4-3C866.6,118.1,861.9,54.1,831.7,64.8z"/>
<path class="st1" d="M830.5,73.7c-14.2-1.6-16.2,23.3-16,39c0.2-15.7,2.8-37,16-35.5c14.8,1.7,17.2,26.6,17.4,40.8
	C848.1,105.1,846.6,75.6,830.5,73.7z"/>
<path class="st1" d="M797.3,122.9c-1-6.8-1.6-13.7-1.8-20.6c0,8.1,0.5,16.1,1.8,24.1c0,0,10.1,6.5,17.8,2.4c0,0-0.1-1.3-0.3-3.4
	C807.1,129.4,797.3,122.9,797.3,122.9z"/>
<path class="st1" d="M863.1,121.1c-3.3,6.1-13.8,3.4-15.2,3c-0.1,2.2-0.2,3.5-0.2,3.5s11.9,3.6,15.4-3c0.7-1.4,1.1-5.1,1-10.2
	C864,117.8,863.6,120.1,863.1,121.1z"/>
<path class="st13" d="M984.7,504.9c2.7-5.1-0.4-11.3-3.9-15.8s-7.9-9.2-7.8-15c0.1-8.3,8.9-13.2,16-17.6c5.2-3.3,10-7.1,14.3-11.5
	c1.8-1.7,3.3-3.7,4.4-5.9c1.4-3.2,1.4-6.9,1.3-10.5c-0.3-11.8-0.9-23.6-1.8-35.4"/>
<path class="st3" d="M1020.5,392.6c-0.2-4.4-2.6-8.4-6.4-10.6l-2.9,5.7l0.1-6.9c-1.4-0.4-2.8-0.6-4.3-0.5
	c-7.1,0.3-12.6,6.4-12.3,13.5s6.4,12.6,13.5,12.3C1015.3,405.7,1020.8,399.7,1020.5,392.6L1020.5,392.6z"/>
<path class="st3" d="M997.4,480c-3.3,6.3-11.1,8.8-17.4,5.6c-4.1-2.1-6.8-6.3-7-10.9c-0.1-1.8,0.2-3.6,0.8-5.2
	c2.6-6.7,10.1-10,16.7-7.4c3.5,1.3,6.2,4.1,7.5,7.5l-8.1,6.6l8.9-2.1C998.9,476.2,998.4,478.2,997.4,480z"/>
<path class="st3" d="M991.1,454.9c-7.1,0.3-13.2-5.2-13.5-12.3c0,0,0,0,0,0c-0.1-2,0.3-4,1.1-5.9c1.6-3.5,4.6-6.1,8.3-7.2l-0.1,5.3
	l2.9-5.8l0,0c7.1-0.3,13.2,5.2,13.5,12.3c0.1,1.5-0.1,3-0.6,4.4C1001.2,451,996.5,454.7,991.1,454.9z"/>
<path class="st3" d="M1022.4,434.1c-7.1,0.3-13.2-5.2-13.5-12.3c0,0,0,0,0,0c-0.1-2.1,0.3-4.2,1.2-6.1c3-6.4,10.7-9.2,17.2-6.2
	c0.3,0.1,0.5,0.3,0.8,0.4l-2.3,6.2l4.7-4.5c2.5,2.3,4,5.5,4.2,8.9c0.1,1.2-0.1,2.4-0.3,3.6C1033.1,429.7,1028.2,433.8,1022.4,434.1z
	"/>
<path class="st1" d="M1018.8,396c-3,0.3-5.9,1.2-8.9,1.4s-6.3-0.5-8.2-2.9c-0.9-1.4-1.7-2.8-2.4-4.2c-0.8-1.3-1.9-2.3-3.2-3.1
	c-1,2-1.5,4.2-1.4,6.5c0.3,7.1,6.4,12.6,13.5,12.3c5.9-0.3,10.8-4.5,12.1-10.2C1019.7,395.9,1019.2,395.9,1018.8,396z"/>
<path class="st1" d="M1022.4,434.1c-7.1,0.3-13.2-5.2-13.5-12.3c0,0,0,0,0,0c-0.1-2.1,0.3-4.2,1.2-6.1c1,0.7,1.9,1.6,2.6,2.6
	c0.9,1.4,1.5,3,2.6,4.3c2,2.4,5.4,3.1,8.6,3s6.1-1,9.2-1.3c0.4,0,0.9-0.1,1.3-0.1C1033.1,429.7,1028.2,433.8,1022.4,434.1z"/>
<path class="st1" d="M991.1,454.9c-7.1,0.3-13.2-5.2-13.5-12.3c0,0,0,0,0,0c-0.1-2,0.3-4,1.1-5.9c1,0.7,2,1.6,2.7,2.6
	c1,1.4,1.6,3,2.8,4.4c2.2,2.4,5.8,3.3,9.2,3.2s6.3-0.9,9.5-1.1C1001.2,451,996.5,454.7,991.1,454.9z"/>
<path class="st1" d="M997.4,480c-3.3,6.3-11.1,8.8-17.4,5.6c-4.1-2.1-6.8-6.3-7-10.9c-0.1-1.8,0.2-3.6,0.8-5.2
	c1.1,0.7,2,1.6,2.8,2.5c1.2,1.5,2,3.2,3.5,4.6c2.6,2.6,6.9,3.7,10.7,3.8C993.1,480.4,995.3,480.2,997.4,480z"/>
<path class="st14" d="M965.2,499.1c0,0,10.2-0.3,13.3-2.5s15.7-4.8,16.4-1.3s15.3,17.5,3.8,17.5s-26.8-1.8-29.8-3.7
	S965.2,499.1,965.2,499.1z"/>
<path class="st4" d="M998.9,511.6c-11.5,0.1-26.8-1.8-29.8-3.7c-2.3-1.4-3.3-6.5-3.6-8.9h-0.3c0,0,0.6,8.2,3.7,10.1
	s18.3,3.7,29.8,3.7c3.3,0,4.5-1.2,4.4-3C1002.7,510.9,1001.4,511.6,998.9,511.6z"/>
</svg>
