<svg width="148" height="61" viewBox="0 0 148 61" fill="none" xmlns="http://www.w3.org/2000/svg">
<path d="M145.834 40.183C145.808 40.8174 145.557 41.3329 145.081 41.7294C144.605 42.1259 144.05 42.3241 143.416 42.3241H130.331C130.648 43.8837 131.375 45.1128 132.512 46.0116C133.648 46.8839 134.93 47.32 136.358 47.32C137.442 47.32 138.287 47.2275 138.895 47.0425C139.503 46.831 139.979 46.6195 140.323 46.4081C140.693 46.1702 140.944 46.0116 141.076 45.9323C141.552 45.6944 142.001 45.5754 142.424 45.5754C142.979 45.5754 143.455 45.7737 143.852 46.1702C144.248 46.5667 144.446 47.0292 144.446 47.5579C144.446 48.2716 144.076 48.9192 143.336 49.5008C142.596 50.1087 141.605 50.6242 140.363 51.0471C139.12 51.47 137.865 51.6815 136.596 51.6815C134.375 51.6815 132.433 51.2189 130.767 50.2938C129.128 49.3686 127.86 48.0998 126.961 46.4874C126.062 44.8485 125.613 43.0114 125.613 40.976C125.613 38.7027 126.089 36.707 127.04 34.9889C127.992 33.2707 129.247 31.9622 130.807 31.0635C132.366 30.1383 134.032 29.6758 135.803 29.6758C137.547 29.6758 139.186 30.1516 140.719 31.1032C142.279 32.0548 143.521 33.3368 144.446 34.9492C145.372 36.5616 145.834 38.3062 145.834 40.183ZM135.803 34.0373C132.736 34.0373 130.926 35.4779 130.371 38.3591H140.759V38.0816C140.653 36.9714 140.111 36.0198 139.133 35.2268C138.155 34.4338 137.045 34.0373 135.803 34.0373Z" fill="#37346E"/>
<path d="M145.834 40.183L146.291 40.202L146.292 40.1925V40.183H145.834ZM130.331 42.3241V41.8666H129.771L129.883 42.4153L130.331 42.3241ZM132.512 46.0116L132.228 46.3705L132.233 46.3745L132.512 46.0116ZM138.895 47.0425L139.029 47.4801L139.037 47.4775L139.046 47.4746L138.895 47.0425ZM140.323 46.4081L140.563 46.7978L140.57 46.7929L140.323 46.4081ZM141.076 45.9323L140.872 45.5231L140.856 45.5309L140.841 45.54L141.076 45.9323ZM143.336 49.5008L143.054 49.1409L143.046 49.1472L143.336 49.5008ZM140.363 51.0471L140.215 50.614L140.363 51.0471ZM130.767 50.2938L130.542 50.6922L130.545 50.6937L130.767 50.2938ZM126.961 46.4874L126.56 46.7073L126.561 46.7101L126.961 46.4874ZM127.04 34.9889L126.64 34.7672L127.04 34.9889ZM130.807 31.0635L131.035 31.4599L131.04 31.457L130.807 31.0635ZM140.719 31.1032L140.478 31.4919L140.481 31.4937L140.719 31.1032ZM144.446 34.9492L144.843 34.7215L144.446 34.9492ZM130.371 38.3591L129.921 38.2726L129.817 38.8166H130.371V38.3591ZM140.759 38.3591V38.8166H141.217V38.3591H140.759ZM140.759 38.0816H141.217V38.0598L141.214 38.0382L140.759 38.0816ZM145.377 40.164C145.356 40.673 145.162 41.0664 144.788 41.3779L145.374 42.0808C145.952 41.5993 146.26 40.9618 146.291 40.202L145.377 40.164ZM144.788 41.3779C144.397 41.7041 143.946 41.8666 143.416 41.8666V42.7816C144.154 42.7816 144.814 42.5476 145.374 42.0808L144.788 41.3779ZM143.416 41.8666H130.331V42.7816H143.416V41.8666ZM129.883 42.4153C130.219 44.0696 130.998 45.3979 132.228 46.3704L132.796 45.6527C131.752 44.8277 131.077 43.6978 130.779 42.2329L129.883 42.4153ZM132.233 46.3745C133.449 47.3079 134.829 47.7775 136.358 47.7775V46.8625C135.032 46.8625 133.847 46.4598 132.79 45.6486L132.233 46.3745ZM136.358 47.7775C137.46 47.7775 138.358 47.6844 139.029 47.4801L138.762 46.6048C138.217 46.7706 137.424 46.8625 136.358 46.8625V47.7775ZM139.046 47.4746C139.669 47.2578 140.179 47.0336 140.563 46.7977L140.083 46.0184C139.779 46.2054 139.338 46.4041 138.745 46.6103L139.046 47.4746ZM140.57 46.7929C140.941 46.5545 141.186 46.3997 141.312 46.3246L140.841 45.54C140.702 45.6235 140.445 45.7858 140.075 46.0232L140.57 46.7929ZM141.281 46.3415C141.709 46.1273 142.088 46.0329 142.424 46.0329V45.1179C141.914 45.1179 141.395 45.2614 140.872 45.5231L141.281 46.3415ZM142.424 46.0329C142.857 46.0329 143.217 46.182 143.528 46.4937L144.175 45.8467C143.694 45.3653 143.102 45.1179 142.424 45.1179V46.0329ZM143.528 46.4937C143.845 46.8101 143.989 47.1585 143.989 47.5579H144.904C144.904 46.9 144.652 46.3232 144.175 45.8467L143.528 46.4937ZM143.989 47.5579C143.989 48.0891 143.721 48.6164 143.054 49.141L143.619 49.8605C144.431 49.2221 144.904 48.4541 144.904 47.5579H143.989ZM143.046 49.1472C142.361 49.71 141.423 50.2027 140.215 50.614L140.51 51.4802C141.786 51.0457 142.832 50.5074 143.627 49.8543L143.046 49.1472ZM140.215 50.614C139.019 51.0213 137.813 51.224 136.596 51.224V52.139C137.916 52.139 139.222 51.9187 140.51 51.4802L140.215 50.614ZM136.596 51.224C134.44 51.224 132.576 50.7754 130.989 49.8938L130.545 50.6937C132.289 51.6624 134.311 52.139 136.596 52.139V51.224ZM130.992 49.8954C129.425 49.0107 128.217 47.802 127.36 46.2646L126.561 46.7101C127.502 48.3975 128.832 49.7265 130.542 50.6922L130.992 49.8954ZM127.362 46.2674C126.503 44.7018 126.07 42.9415 126.07 40.976H125.155C125.155 43.0813 125.621 44.9951 126.56 46.7073L127.362 46.2674ZM126.07 40.976C126.07 38.768 126.532 36.8508 127.44 35.2105L126.64 34.7672C125.645 36.5632 125.155 38.6375 125.155 40.976H126.07ZM127.44 35.2105C128.355 33.5583 129.554 32.3133 131.035 31.4599L130.578 30.6671C128.94 31.6111 127.628 32.9831 126.64 34.7672L127.44 35.2105ZM131.04 31.457C132.531 30.5727 134.116 30.1333 135.803 30.1333V29.2183C133.948 29.2183 132.202 29.704 130.573 30.67L131.04 31.457ZM135.803 30.1333C137.459 30.1333 139.015 30.5836 140.478 31.4919L140.961 30.7144C139.358 29.7195 137.636 29.2183 135.803 29.2183V30.1333ZM140.481 31.4937C141.974 32.4045 143.162 33.63 144.05 35.1769L144.843 34.7215C143.881 33.0436 142.584 31.705 140.958 30.7126L140.481 31.4937ZM144.05 35.1769C144.935 36.7193 145.377 38.3853 145.377 40.183H146.292C146.292 38.2271 145.809 36.4039 144.843 34.7215L144.05 35.1769ZM135.803 33.5798C134.2 33.5798 132.869 33.9567 131.86 34.7597C130.849 35.5646 130.214 36.7543 129.921 38.2726L130.82 38.4457C131.083 37.0827 131.631 36.1114 132.43 35.4757C133.231 34.8381 134.339 34.4948 135.803 34.4948V33.5798ZM130.371 38.8166H140.759V37.9016H130.371V38.8166ZM141.217 38.3591V38.0816H140.302V38.3591H141.217ZM141.214 38.0382C141.096 36.7895 140.481 35.7308 139.421 34.8714L138.845 35.5821C139.741 36.3087 140.211 37.1532 140.304 38.1249L141.214 38.0382ZM139.421 34.8714C138.363 34.0133 137.152 33.5798 135.803 33.5798V34.4948C136.939 34.4948 137.947 34.8542 138.845 35.5821L139.421 34.8714Z" fill="#37346E"/>
<path d="M102.386 37.3558V50.0071C102.386 50.0071 103.095 50.902 104.039 50.902C104.984 50.902 105.457 50.0071 105.457 50.0071V37.3558C105.457 37.3558 105.535 36.3066 106.874 36.2623C108.212 36.218 108.212 37.3558 108.212 37.3558V34.7867C108.291 34.3952 108.826 33.6123 109.708 33.6123C110.59 33.6123 111.02 34.3952 111.125 34.7867V32.1443C111.125 31.7528 111.55 30.9699 112.621 30.9699C113.692 30.9699 114.012 31.7528 114.038 32.1443V34.7867C114.143 34.3952 114.589 33.6123 115.534 33.6123C116.479 33.6123 116.82 34.3952 116.873 34.7867V41.7598C117.004 41.1482 117.849 40.2184 118.605 40.0716C119.36 39.9248 119.786 40.2918 119.786 40.8056V48.4394C119.786 49.6872 119.077 50.568 118.526 50.935H119.707C120.494 50.935 122.305 50.0542 122.305 48.4394V18.2714C122.226 17.5864 121.675 16.1134 120.101 15.7024C118.132 15.1886 116.479 16.1428 116.164 16.6566C115.912 17.0677 104.039 33.9059 104.039 33.9059C100.182 28.3519 92.403 17.0677 92.151 16.6566C91.8361 16.1428 90.1828 15.1886 88.2145 15.7024C86.6399 16.1134 86.0887 17.5864 86.01 18.2714V48.4394C86.01 50.0542 87.8208 50.935 88.6081 50.935H89.7891C89.238 50.568 88.057 49.6872 88.057 48.4394V40.0716C88.057 39.6312 89.0018 39.411 89.3954 39.6312C89.7891 39.8514 90.8388 41.1482 90.9701 41.7598V34.7867C91.0226 34.3952 91.3637 33.6123 92.3085 33.6123C93.2533 33.6123 93.6994 34.3952 93.8044 34.7867V32.1443C93.8306 31.7528 94.1508 30.9699 95.2215 30.9699C96.2923 30.9699 96.7174 31.7528 96.7174 32.1443V34.7867C96.8224 34.3952 97.2528 33.6123 98.1346 33.6123C99.0164 33.6123 99.5517 34.3952 99.6305 34.7867V37.3558C99.6305 37.3558 99.6305 36.218 100.969 36.2623C102.307 36.3066 102.386 37.3558 102.386 37.3558Z" fill="#37346E" stroke="#37346E" stroke-width="0.305"/>
<path d="M51.9101 29.9807C52.5973 29.9807 53.1656 30.2054 53.615 30.6548C54.0644 31.1042 54.2891 31.6857 54.2891 32.3994V49.1713C54.2891 49.8586 54.0644 50.4401 53.615 50.9159C53.1656 51.3653 52.5973 51.59 51.9101 51.59C51.2228 51.59 50.6545 51.3653 50.2051 50.9159C49.7822 50.4666 49.5575 49.8983 49.5311 49.211C48.8702 49.9776 47.9715 50.6384 46.8349 51.1935C45.7247 51.7222 44.5484 51.9865 43.306 51.9865C41.4821 51.9865 39.83 51.5239 38.3498 50.5987C36.8695 49.6471 35.6932 48.3387 34.8209 46.6734C33.975 45.0081 33.5521 43.1181 33.5521 41.0034C33.5521 38.8888 33.975 36.9988 34.8209 35.3335C35.6668 33.6418 36.8166 32.3333 38.2705 31.4081C39.7507 30.4565 41.3764 29.9807 43.1474 29.9807C44.4162 29.9807 45.6057 30.2186 46.7159 30.6944C47.8261 31.1438 48.7645 31.7253 49.5311 32.439V32.3994C49.5311 31.7121 49.7557 31.1438 50.2051 30.6944C50.6545 30.2186 51.2228 29.9807 51.9101 29.9807ZM43.9008 47.625C45.6189 47.625 47.0199 47.0038 48.1037 45.7614C49.1874 44.4926 49.7293 42.9066 49.7293 41.0034C49.7293 39.1002 49.1874 37.5142 48.1037 36.2454C47.0199 34.9766 45.6189 34.3422 43.9008 34.3422C42.209 34.3422 40.8213 34.9766 39.7375 36.2454C38.6537 37.5142 38.1119 39.1002 38.1119 41.0034C38.1119 42.9066 38.6405 44.4926 39.6979 45.7614C40.7816 47.0038 42.1826 47.625 43.9008 47.625ZM63.9259 49.1713C63.9259 49.8586 63.7012 50.4401 63.2518 50.9159C62.8024 51.3653 62.2341 51.59 61.5469 51.59C60.8596 51.59 60.2913 51.3653 59.8419 50.9159C59.3925 50.4401 59.1679 49.8586 59.1679 49.1713V32.7959C59.1679 32.1086 59.3925 31.5403 59.8419 31.0909C60.2913 30.6151 60.8596 30.3772 61.5469 30.3772C62.2341 30.3772 62.8024 30.6151 63.2518 31.0909C63.7012 31.5403 63.9259 32.1086 63.9259 32.7959V49.1713ZM61.5072 27.8C60.6085 27.8 59.9741 27.6546 59.604 27.3638C59.2339 27.0731 59.0489 26.5576 59.0489 25.8175V25.0641C59.0489 24.324 59.2472 23.8086 59.6437 23.5178C60.0402 23.227 60.6746 23.0816 61.5469 23.0816C62.472 23.0816 63.1196 23.227 63.4897 23.5178C63.8598 23.8086 64.0448 24.324 64.0448 25.0641V25.8175C64.0448 26.5841 63.8466 27.1127 63.4501 27.4035C63.08 27.6678 62.4324 27.8 61.5072 27.8ZM79.8385 29.9807C80.6315 29.9807 81.2924 30.2054 81.821 30.6548C82.3761 31.1042 82.6537 31.6328 82.6537 32.2408C82.6537 33.0602 82.4422 33.6814 82.0193 34.1043C81.5963 34.5008 81.0941 34.6991 80.5126 34.6991C80.1161 34.6991 79.6667 34.6066 79.1645 34.4215C79.0852 34.3951 78.9001 34.3422 78.6094 34.2629C78.345 34.1836 78.0543 34.144 77.7371 34.144C77.0498 34.144 76.389 34.3555 75.7546 34.7784C75.1202 35.2013 74.5915 35.8489 74.1686 36.7212C73.7721 37.5671 73.5738 38.5848 73.5738 39.7743V49.1713C73.5738 49.8586 73.3491 50.4401 72.8998 50.9159C72.4504 51.3653 71.8821 51.59 71.1948 51.59C70.5076 51.59 69.9392 51.3653 69.4899 50.9159C69.0405 50.4401 68.8158 49.8586 68.8158 49.1713V32.7959C68.8158 32.1086 69.0405 31.5403 69.4899 31.0909C69.9392 30.6151 70.5076 30.3772 71.1948 30.3772C71.8821 30.3772 72.4504 30.6151 72.8998 31.0909C73.3491 31.5403 73.5738 32.1086 73.5738 32.7959V33.3113C74.1818 32.2276 75.0541 31.4081 76.1907 30.853C77.3274 30.2715 78.5433 29.9807 79.8385 29.9807Z" fill="#37346E"/>
<path d="M53.615 30.6548L53.2915 30.9783V30.9783L53.615 30.6548ZM53.615 50.9159L53.9386 51.2396L53.9476 51.2301L53.615 50.9159ZM50.2051 50.9159L49.8718 51.2296L49.8816 51.2394L50.2051 50.9159ZM49.5311 49.211L49.9882 49.1934L49.9435 48.0318L49.1845 48.9123L49.5311 49.211ZM46.8349 51.1935L47.0316 51.6066L47.0356 51.6046L46.8349 51.1935ZM38.3498 50.5987L38.1023 50.9836L38.1073 50.9867L38.3498 50.5987ZM34.8209 46.6734L34.413 46.8806L34.4156 46.8857L34.8209 46.6734ZM34.8209 35.3335L35.2288 35.5407L35.2301 35.5381L34.8209 35.3335ZM38.2705 31.4081L38.5161 31.7941L38.5179 31.793L38.2705 31.4081ZM46.7159 30.6944L46.5357 31.115L46.5443 31.1185L46.7159 30.6944ZM49.5311 32.439L49.2193 32.7739L49.9886 33.4901V32.439H49.5311ZM50.2051 30.6944L50.5287 31.0181L50.5377 31.0086L50.2051 30.6944ZM48.1037 45.7614L48.4484 46.0622L48.4515 46.0586L48.1037 45.7614ZM48.1037 36.2454L47.7558 36.5426L48.1037 36.2454ZM39.7375 36.2454L40.0854 36.5426L39.7375 36.2454ZM39.6979 45.7614L39.3463 46.0544L39.3531 46.0622L39.6979 45.7614ZM51.9101 30.4382C52.4869 30.4382 52.9354 30.6221 53.2915 30.9783L53.9385 30.3313C53.3959 29.7887 52.7077 29.5232 51.9101 29.5232V30.4382ZM53.2915 30.9783C53.6442 31.331 53.8316 31.7907 53.8316 32.3994H54.7466C54.7466 31.5807 54.4846 30.8773 53.9385 30.3313L53.2915 30.9783ZM53.8316 32.3994V49.1713H54.7466V32.3994H53.8316ZM53.8316 49.1713C53.8316 49.7483 53.6472 50.2155 53.2824 50.6018L53.9476 51.2301C54.4815 50.6648 54.7466 49.969 54.7466 49.1713H53.8316ZM53.2915 50.5924C52.9354 50.9486 52.4869 51.1325 51.9101 51.1325V52.0475C52.7077 52.0475 53.3959 51.782 53.9385 51.2394L53.2915 50.5924ZM51.9101 51.1325C51.3332 51.1325 50.8848 50.9486 50.5286 50.5924L49.8816 51.2394C50.4242 51.782 51.1124 52.0475 51.9101 52.0475V51.1325ZM50.5383 50.6024C50.1998 50.2428 50.0109 49.7838 49.9882 49.1934L49.0739 49.2286C49.1041 50.0127 49.3645 50.6903 49.872 51.2295L50.5383 50.6024ZM49.1845 48.9123C48.5729 49.6217 47.7285 50.2479 46.6341 50.7824L47.0356 51.6046C48.2145 51.0289 49.1675 50.3334 49.8776 49.5097L49.1845 48.9123ZM46.6382 50.7804C45.5901 51.2795 44.481 51.529 43.306 51.529V52.444C44.6157 52.444 45.8593 52.1648 47.0315 51.6066L46.6382 50.7804ZM43.306 51.529C41.5638 51.529 39.9964 51.0884 38.5922 50.2108L38.1073 50.9867C39.6636 51.9594 41.4004 52.444 43.306 52.444V51.529ZM38.5972 50.2139C37.1881 49.3081 36.0643 48.0611 35.2262 46.4611L34.4156 46.8857C35.3221 48.6162 36.5508 49.9862 38.1024 50.9836L38.5972 50.2139ZM35.2288 46.4662C34.4196 44.8731 34.0096 43.0557 34.0096 41.0034H33.0946C33.0946 43.1805 33.5304 45.143 34.413 46.8806L35.2288 46.4662ZM34.0096 41.0034C34.0096 38.9512 34.4196 37.1337 35.2288 35.5407L34.413 35.1263C33.5304 36.8638 33.0946 38.8264 33.0946 41.0034H34.0096ZM35.2301 35.5381C36.0426 33.9131 37.1389 32.6705 38.5161 31.7941L38.0248 31.0222C36.4943 31.9961 35.2909 33.3705 34.4117 35.1289L35.2301 35.5381ZM38.5179 31.793C39.9238 30.8891 41.4635 30.4382 43.1474 30.4382V29.5232C41.2892 29.5232 39.5776 30.0239 38.0231 31.0233L38.5179 31.793ZM43.1474 30.4382C44.3574 30.4382 45.4853 30.6648 46.5357 31.115L46.8961 30.2739C45.7261 29.7725 44.475 29.5232 43.1474 29.5232V30.4382ZM46.5443 31.1185C47.61 31.5499 48.499 32.1033 49.2193 32.7739L49.8428 32.1042C49.03 31.3474 48.0422 30.7377 46.8876 30.2704L46.5443 31.1185ZM49.9886 32.439V32.3994H49.0736V32.439H49.9886ZM49.9886 32.3994C49.9886 31.8226 50.1725 31.3741 50.5286 31.0179L49.8816 30.3709C49.339 30.9135 49.0736 31.6017 49.0736 32.3994H49.9886ZM50.5377 31.0086C50.8959 30.6293 51.3416 30.4382 51.9101 30.4382V29.5232C51.104 29.5232 50.413 29.808 49.8725 30.3803L50.5377 31.0086ZM43.9008 48.0825C45.7447 48.0825 47.2737 47.4088 48.4484 46.0622L47.7589 45.4607C46.7661 46.5988 45.4931 47.1675 43.9008 47.1675V48.0825ZM48.4515 46.0586C49.6159 44.6954 50.1868 42.9993 50.1868 41.0034H49.2718C49.2718 42.814 48.7589 44.2899 47.7558 45.4643L48.4515 46.0586ZM50.1868 41.0034C50.1868 39.0076 49.6159 37.3115 48.4515 35.9483L47.7558 36.5426C48.7589 37.717 49.2718 39.1929 49.2718 41.0034H50.1868ZM48.4515 35.9483C47.2779 34.5743 45.7482 33.8847 43.9008 33.8847V34.7997C45.4897 34.7997 46.7619 35.379 47.7558 36.5426L48.4515 35.9483ZM43.9008 33.8847C42.0773 33.8847 40.5617 34.5761 39.3896 35.9483L40.0854 36.5426C41.0808 35.3772 42.3407 34.7997 43.9008 34.7997V33.8847ZM39.3896 35.9483C38.2252 37.3115 37.6544 39.0076 37.6544 41.0034H38.5694C38.5694 39.1929 39.0823 37.717 40.0854 36.5426L39.3896 35.9483ZM37.6544 41.0034C37.6544 42.9965 38.2103 44.691 39.3464 46.0543L40.0493 45.4686C39.0708 44.2943 38.5694 42.8168 38.5694 41.0034H37.6544ZM39.3531 46.0622C40.5278 47.4088 42.0568 48.0825 43.9008 48.0825V47.1675C42.3084 47.1675 41.0354 46.5988 40.0426 45.4607L39.3531 46.0622ZM63.2518 50.9159L63.5754 51.2396L63.5844 51.2301L63.2518 50.9159ZM59.8419 50.9159L59.5092 51.2302L59.5184 51.2394L59.8419 50.9159ZM59.8419 31.0909L60.1655 31.4146L60.1745 31.4051L59.8419 31.0909ZM63.2518 31.0909L62.9191 31.4052L62.9283 31.4144L63.2518 31.0909ZM59.604 27.3638L59.3214 27.7236L59.3214 27.7236L59.604 27.3638ZM59.6437 23.5178L59.9142 23.8867V23.8867L59.6437 23.5178ZM63.4897 23.5178L63.2071 23.8775V23.8775L63.4897 23.5178ZM63.4501 27.4035L63.716 27.7758L63.7206 27.7724L63.4501 27.4035ZM63.4684 49.1713C63.4684 49.7483 63.284 50.2155 62.9192 50.6018L63.5844 51.2301C64.1183 50.6648 64.3834 49.969 64.3834 49.1713H63.4684ZM62.9283 50.5924C62.5722 50.9486 62.1237 51.1325 61.5469 51.1325V52.0475C62.3446 52.0475 63.0327 51.782 63.5753 51.2394L62.9283 50.5924ZM61.5469 51.1325C60.97 51.1325 60.5216 50.9486 60.1654 50.5924L59.5184 51.2394C60.061 51.782 60.7492 52.0475 61.5469 52.0475V51.1325ZM60.1745 50.6018C59.8097 50.2155 59.6254 49.7483 59.6254 49.1713H58.7104C58.7104 49.969 58.9754 50.6648 59.5093 51.2301L60.1745 50.6018ZM59.6254 49.1713V32.7959H58.7104V49.1713H59.6254ZM59.6254 32.7959C59.6254 32.2191 59.8093 31.7706 60.1654 31.4144L59.5184 30.7674C58.9758 31.31 58.7104 31.9982 58.7104 32.7959H59.6254ZM60.1745 31.4051C60.5327 31.0258 60.9784 30.8347 61.5469 30.8347V29.9197C60.7408 29.9197 60.0498 30.2045 59.5093 30.7768L60.1745 31.4051ZM61.5469 30.8347C62.1153 30.8347 62.561 31.0258 62.9192 31.4051L63.5844 30.7768C63.0439 30.2045 62.3529 29.9197 61.5469 29.9197V30.8347ZM62.9283 31.4144C63.2845 31.7706 63.4684 32.2191 63.4684 32.7959H64.3834C64.3834 31.9982 64.1179 31.31 63.5753 30.7674L62.9283 31.4144ZM63.4684 32.7959V49.1713H64.3834V32.7959H63.4684ZM61.5072 27.3425C60.6308 27.3425 60.1301 27.1954 59.8867 27.0041L59.3214 27.7236C59.8181 28.1139 60.5862 28.2575 61.5072 28.2575V27.3425ZM59.8867 27.0041C59.678 26.8401 59.5064 26.4983 59.5064 25.8175H58.5914C58.5914 26.617 58.7899 27.306 59.3214 27.7236L59.8867 27.0041ZM59.5064 25.8175V25.0641H58.5914V25.8175H59.5064ZM59.5064 25.0641C59.5064 24.3932 59.6857 24.0543 59.9142 23.8867L59.3731 23.1489C58.8087 23.5628 58.5914 24.2548 58.5914 25.0641H59.5064ZM59.9142 23.8867C60.1917 23.6832 60.7054 23.5391 61.5469 23.5391V22.6241C60.6438 22.6241 59.8886 22.7708 59.3731 23.1489L59.9142 23.8867ZM61.5469 23.5391C62.4535 23.5391 62.9652 23.6875 63.2071 23.8775L63.7724 23.1581C63.2741 22.7666 62.4906 22.6241 61.5469 22.6241V23.5391ZM63.2071 23.8775C63.4157 24.0415 63.5873 24.3834 63.5873 25.0641H64.5023C64.5023 24.2647 64.3038 23.5756 63.7724 23.1581L63.2071 23.8775ZM63.5873 25.0641V25.8175H64.5023V25.0641H63.5873ZM63.5873 25.8175C63.5873 26.5218 63.4044 26.8696 63.1795 27.0346L63.7206 27.7724C64.2887 27.3558 64.5023 26.6464 64.5023 25.8175H63.5873ZM63.1841 27.0312C62.9387 27.2066 62.4184 27.3425 61.5072 27.3425V28.2575C62.4464 28.2575 63.2213 28.1291 63.716 27.7758L63.1841 27.0312ZM81.821 30.6548L81.5246 31.0035L81.5332 31.0104L81.821 30.6548ZM82.0193 34.1043L82.3322 34.4381L82.3376 34.4331L82.3428 34.4278L82.0193 34.1043ZM79.1645 34.4215L79.3226 33.9923L79.3159 33.9898L79.3091 33.9875L79.1645 34.4215ZM78.6094 34.2629L78.4779 34.7013L78.489 34.7043L78.6094 34.2629ZM75.7546 34.7784L76.0083 35.1591L75.7546 34.7784ZM74.1686 36.7212L73.7569 36.5216L73.7543 36.5271L74.1686 36.7212ZM72.8998 50.9159L73.2234 51.2396L73.2324 51.2301L72.8998 50.9159ZM69.4899 50.9159L69.1571 51.2302L69.1664 51.2394L69.4899 50.9159ZM69.4899 31.0909L69.8135 31.4146L69.8225 31.4051L69.4899 31.0909ZM72.8998 31.0909L72.567 31.4052L72.5763 31.4144L72.8998 31.0909ZM73.5738 33.3113H73.1163V35.062L73.9728 33.5352L73.5738 33.3113ZM76.1907 30.853L76.3915 31.2642L76.3991 31.2603L76.1907 30.853ZM79.8385 30.4382C80.5394 30.4382 81.0905 30.6343 81.5247 31.0034L82.1173 30.3062C81.4942 29.7766 80.7236 29.5232 79.8385 29.5232V30.4382ZM81.5332 31.0104C82.0019 31.3898 82.1962 31.7957 82.1962 32.2408H83.1112C83.1112 31.4699 82.7504 30.8185 82.1089 30.2992L81.5332 31.0104ZM82.1962 32.2408C82.1962 32.9848 82.0051 33.4715 81.6958 33.7808L82.3428 34.4278C82.8793 33.8913 83.1112 33.1356 83.1112 32.2408H82.1962ZM81.7064 33.7706C81.3685 34.0873 80.9783 34.2416 80.5126 34.2416V35.1566C81.2099 35.1566 81.8242 34.9144 82.3322 34.4381L81.7064 33.7706ZM80.5126 34.2416C80.1853 34.2416 79.7908 34.1647 79.3226 33.9923L79.0063 34.8508C79.5426 35.0484 80.0469 35.1566 80.5126 35.1566V34.2416ZM79.3091 33.9875C79.2153 33.9562 79.0168 33.8999 78.7297 33.8216L78.489 34.7043C78.7835 34.7846 78.955 34.834 79.0198 34.8556L79.3091 33.9875ZM78.7408 33.8247C78.428 33.7309 78.0923 33.6865 77.7371 33.6865V34.6015C78.0163 34.6015 78.262 34.6364 78.4779 34.7012L78.7408 33.8247ZM77.7371 33.6865C76.9497 33.6865 76.2018 33.9304 75.5008 34.3977L76.0083 35.1591C76.5761 34.7805 77.1499 34.6015 77.7371 34.6015V33.6865ZM75.5008 34.3977C74.7825 34.8766 74.2059 35.5956 73.7569 36.5217L74.5802 36.9208C74.9771 36.1023 75.4578 35.5261 76.0083 35.1591L75.5008 34.3977ZM73.7543 36.5271C73.3227 37.4479 73.1163 38.5354 73.1163 39.7743H74.0313C74.0313 38.6342 74.2215 37.6863 74.5828 36.9154L73.7543 36.5271ZM73.1163 39.7743V49.1713H74.0313V39.7743H73.1163ZM73.1163 49.1713C73.1163 49.7483 72.932 50.2155 72.5672 50.6018L73.2324 51.2301C73.7663 50.6648 74.0313 49.969 74.0313 49.1713H73.1163ZM72.5763 50.5924C72.2201 50.9486 71.7717 51.1325 71.1948 51.1325V52.0475C71.9925 52.0475 72.6807 51.782 73.2233 51.2394L72.5763 50.5924ZM71.1948 51.1325C70.618 51.1325 70.1695 50.9486 69.8134 50.5924L69.1664 51.2394C69.709 51.782 70.3971 52.0475 71.1948 52.0475V51.1325ZM69.8225 50.6018C69.4576 50.2155 69.2733 49.7483 69.2733 49.1713H68.3583C68.3583 49.969 68.6234 50.6648 69.1573 51.2301L69.8225 50.6018ZM69.2733 49.1713V32.7959H68.3583V49.1713H69.2733ZM69.2733 32.7959C69.2733 32.2191 69.4572 31.7706 69.8134 31.4144L69.1664 30.7674C68.6238 31.31 68.3583 31.9982 68.3583 32.7959H69.2733ZM69.8225 31.4051C70.1807 31.0258 70.6263 30.8347 71.1948 30.8347V29.9197C70.3888 29.9197 69.6978 30.2045 69.1573 30.7768L69.8225 31.4051ZM71.1948 30.8347C71.7633 30.8347 72.209 31.0258 72.5672 31.4051L73.2324 30.7768C72.6918 30.2045 72.0009 29.9197 71.1948 29.9197V30.8347ZM72.5763 31.4144C72.9324 31.7706 73.1163 32.2191 73.1163 32.7959H74.0313C74.0313 31.9982 73.7659 31.31 73.2233 30.7674L72.5763 31.4144ZM73.1163 32.7959V33.3113H74.0313V32.7959H73.1163ZM73.9728 33.5352C74.5344 32.5341 75.3368 31.7792 76.3915 31.2641L75.99 30.4419C74.7713 31.0371 73.8292 31.9211 73.1748 33.0875L73.9728 33.5352ZM76.3991 31.2603C77.4703 30.7123 78.6147 30.4382 79.8385 30.4382V29.5232C78.4719 29.5232 77.1844 29.8307 75.9823 30.4458L76.3991 31.2603Z" fill="#37346E"/>
<path d="M24.2976 15.705C26.0605 15.705 27.737 16.2408 29.327 17.3123C30.9171 18.3493 32.1961 19.7666 33.1639 21.5641C34.1318 23.327 34.6157 25.2627 34.6157 27.3712C34.6157 29.4452 34.1318 31.381 33.1639 33.1785C32.1961 34.9759 30.9171 36.4104 29.327 37.482C27.737 38.519 26.0605 39.0375 24.2976 39.0375H15.2757V48.8371C15.2757 49.7704 14.9991 50.5309 14.4461 51.1185C13.893 51.7062 13.1671 52 12.2684 52C11.4042 52 10.6956 51.7062 10.1425 51.1185C9.58946 50.4964 9.31293 49.7359 9.31293 48.8371V18.8678C9.31293 17.9691 9.60674 17.2259 10.1944 16.6383C10.8166 16.0161 11.577 15.705 12.4758 15.705H24.2976ZM24.2976 33.1266C24.9543 33.1266 25.5938 32.8501 26.216 32.297C26.8728 31.7439 27.3913 31.0353 27.7715 30.1711C28.1863 29.2724 28.3937 28.3391 28.3937 27.3712C28.3937 26.4034 28.1863 25.4874 27.7715 24.6232C27.3913 23.7245 26.8728 23.0159 26.216 22.4974C25.5938 21.9443 24.9543 21.6677 24.2976 21.6677H15.2757V33.1266H24.2976Z" fill="#37346E"/>
</svg>
