<?xml version="1.0" encoding="utf-8"?>
<!-- Generator: Adobe Illustrator 23.0.3, SVG Export Plug-In . SVG Version: 6.00 Build 0)  -->
<svg version="1.1" id="bc533fab-02ef-422d-9322-6d24acb0347b"
	 xmlns="http://www.w3.org/2000/svg" xmlns:xlink="http://www.w3.org/1999/xlink" x="0px" y="0px" viewBox="0 0 855.3 676"
	 style="enable-background:new 0 0 855.3 676;" xml:space="preserve">
<style type="text/css">
	.st0{fill:#3F3D56;}
	.st1{opacity:0.1;enable-background:new    ;}
	.st2{fill:#C1F71A;}
	.st3{fill:#FFB9B9;}
	.st4{fill:#D0CDE1;}
	.st5{fill:#2F2E41;}
	.st6{fill:#F2F2F2;}
</style>
<title>tree_swing</title>
<path class="st0" d="M597.3,584.9h-2V366c0-1.8-0.8-3.5-2.2-4.7l1.3-1.6c1.9,1.5,3,3.8,2.9,6.2V584.9z"/>
<path class="st0" d="M342.8,675c0,0,51.4-137.1,23.1-221.5s-50.8-81.1-50.8-81.1s-38.2-9.9-85.7,19.1s-60,37.6-87,25.7
	s-32.3-30.3-98.2-28.3c0,0,34.9-19.1,69.2-2s57.3,26.4,92.3,0s83.1-60.6,129.9-40.2c0,0-34.3-33.6-45.5-33.6s-63.9-5.3-81.1-23.1
	c0,0-24.4-17.1-67.9,25s-33,42.2-71.9,38.9S0,331.6,0,331.6s45.5,18.5,73.2,9.2s51.4-44.2,75.8-56s38.9-27.7,71.9-10.5
	c0,0-13.8-56.7-40.2-52.1s-84.4,0.7-123.3-26.4c0,0-31-0.7-44.8,5.9c0,0,36.3-21.1,67.2-5.9S193.1,209,193.1,209
	s-7.3-96.2-21.1-102.8s-5.3-23.7-31-27c0,0,31.6-4,37.6,17.8S225.4,236,225.4,236s25,50.1,52.7,38.2s-10.5-78.4-10.5-78.4L220.2,174
	c0,0,35.6-1.3,57.3,19.1s23.1,86.4,23.1,86.4s54.7,7.9,67.9,37.6c0,0,8.6-26.4-7.9-42.2c-4.1-4-8.4-10.8-12.6-18.9
	c-15.8-31-21.5-66.3-16.3-100.7c2.5-16.9,4-33.4,1.3-37.2c-5.9-8.6-31-61.3-33-75.1s2-42.8,2-42.8s0.7,35.6,8.6,46.8
	s30.3,66.6,30.3,66.6s11.9-24.4,25.7-30.3s34.9-42.2,27-60c0,0,9.9,27.7,2,43.5s-30.3,34.3-30.3,34.3s-24.4,82.4-5.9,116.7
	s54.1,72.5,52.1,97.6v14.5c0,0,39.6-37.6,36.9-50.1s-5.9-42.2-31-60s-41.5-46.1-23.7-87s17.8-48.1,17.8-48.1l-11.9,50.8
	c0,0-6.6,45.5,11.9,61.3s42.8,44.8,42.8,44.8l-5.3-94.9c0,0-1.3-77.8,74.5-111.4l48.1-20.4l-49.4,31c0,0-59.3,52.7-55.4,85
	s-0.7,53.4-0.7,53.4s36.9-47.5,80.4-63.3S617,49.4,617,49.4l36.9-29l-30.3,36.3c0,0-9.2,42.8-61.3,73.2
	c-52.1,30.3-85.7,75.1-87.7,102.8s-4,52.1-4,52.1s97.6-3.3,119.3-46.1c21.8-42.8,23.7-127.9,44.8-141.7c21.1-13.8,60.6-31,60.6-31
	l-44.2,36.3c0,0-9.2,29.7-7.3,50.8c2,21.1-14.5,40.9-14.5,40.9s45.5-15.8,70.5-46.1s54.1-58,54.1-58s-34.9,52.1-34.9,54.1
	c0,2-21.1,22.4-18.5,34.9s-40.2,27-40.2,27l-43.5,25l-13.8,31.6c0,0,56.7,1.3,86.4,34.9S793,340.8,793,340.8L751.5,352
	c0,0-39.6-13.2-77.1-37.6c-37.6-24.4-33.6-46.1-80.4-21.8s-110.7,44.8-110.7,44.8s36.9-17.1,103.5,24.4s137.8,13.8,137.8,13.8
	S708.6,406.1,675,408c-33.6,2-121.3-53.4-151-37.6c-29.7,15.8-43.5-4-55.4,35.6s-33.6,147.7-8.6,208.3l25,60.6H342.8z"/>
<path class="st1" d="M591,238.6c-17.7,34.8-85.4,43.5-110.2,45.6c-0.7,8.9-1.2,14.6-1.2,14.6s97.6-3.3,119.3-46.1
	s23.7-127.9,44.8-141.7c2.2-1.5,4.7-3,7.3-4.5c0.7-2.7,1.2-4.2,1.2-4.2l44.2-36.3c0,0-39.6,17.1-60.6,31S612.7,195.8,591,238.6z"/>
<path class="st1" d="M650.8,185c-2.7,8.2-6.9,16-12.3,22.8c0,0,39.6-13.8,65.3-40.3c5-10.9,16.4-22.4,16.4-23.8
	c0-2,34.9-54.1,34.9-54.1s-29,27.7-54.1,58C686.9,164.8,666.1,177.4,650.8,185z"/>
<path class="st1" d="M412.3,196.4c-0.5-0.4-0.9-0.8-1.3-1.2c2,6.1,4.9,11.5,9.3,15.2c18.5,15.8,42.8,44.8,42.8,44.8l-5.3-94.9
	c0,0-0.9-51.7,39.9-89c7.9-9.1,16.4-17.7,25.3-25.8l49.4-31l-48.1,20.4c-75.8,33.6-74.5,111.4-74.5,111.4l5.3,94.9
	C455.2,241.3,430.8,212.3,412.3,196.4z"/>
<path class="st1" d="M477.3,172c-0.1,16.2-2.3,25.9-2.3,25.9s36.9-47.4,80.4-63.3c2.6-1.6,5.2-3.2,7.8-4.8
	c52.1-30.3,61.3-73.2,61.3-73.2l30.3-36.3l-36.9,29c0,0-27,55.4-70.5,71.2C517.8,131.4,491.2,156.9,477.3,172z"/>
<path class="st1" d="M420.3,329.1v14.5c0,0,39.6-37.6,36.9-50.1c-2-9.6-4.4-29.2-16.7-45.8c5.5,12.6,7.2,24.9,8.7,31.8
	c1.9,9-17.9,30.8-29.3,42.5C420.4,324.3,420.5,326.7,420.3,329.1z"/>
<path class="st1" d="M367.3,229.6c0.3,0.7,0.6,1.3,1,2c10.1,18.8,25.3,38.7,36.8,57.1C395.8,270.4,379.8,249.7,367.3,229.6z"/>
<path class="st1" d="M587.7,361.9c-21.7-13.5-40.2-20.8-55.4-24.5c-15.9,6-29,10.4-35.5,12.6c11.8-3.1,46-7.1,98.9,25.9
	c41.5,25.9,84.8,24.9,111.6,20.4c7.4-5.6,13.6-12.6,18.2-20.6C725.4,375.7,654.3,403.4,587.7,361.9z"/>
<path class="st1" d="M399.4,201.5c-5.3-13-6.2-28.5-0.1-46.7c-0.1-6.6,0.3-13.2,1.1-19.7l10.4-44.4c-1.9,6.4-6.3,18.8-16.3,41.8
	C381.8,161.6,386.6,184.4,399.4,201.5z"/>
<path class="st1" d="M690.5,297.3c-20.6-23.3-54.1-31.1-72.8-33.7l-5.6,12.7c0,0,56.7,1.3,86.4,34.9c16.4,18.6,46.5,30,70,36.4
	l25.5-6.9C794,340.8,720.2,330.9,690.5,297.3z"/>
<path class="st1" d="M287.2,288.2c27.7-11.9-10.5-78.4-10.5-78.4l-1-0.5c9.5,20.1,23.4,56.5,3.6,64.9c-18.5,7.9-35.8-11.8-45.3-25.8
	c0.3,1,0.5,1.5,0.5,1.5S259.5,300.1,287.2,288.2z"/>
<path class="st1" d="M377.5,331.1c0,0,8.3-25.7-7.3-41.6c3.8,13.7-0.7,27.6-0.7,27.6c-10.2-22.9-45.2-32.9-60.6-36.2
	c0.6,7.6,0.7,12.6,0.7,12.6S364.3,301.4,377.5,331.1z"/>
<path class="st1" d="M410.8,90.7c1.5-5,1.5-6.4,1.5-6.4L410.8,90.7z"/>
<path class="st1" d="M81.8,354.9c0.1,0,0.3-0.1,0.4-0.1c27.7-9.2,51.4-44.2,75.8-56s38.9-27.7,71.9-10.5c0,0-5.8-23.6-16.9-39.1
	c3.7,8.1,6.7,16.5,8.9,25.1c-33-17.1-47.5-1.3-71.9,10.5s-48.1,46.8-75.8,56S1,331.6,1,331.6s30.3,19.1,69.2,22.4
	C74.7,354.4,78.5,354.7,81.8,354.9z"/>
<path class="st1" d="M58.3,195.8c5.1,3.5,10.5,6.7,16.1,9.4c5,0.8,9.8,2.4,14.4,4.6c19.9,9.8,61.1,12.4,88,13.1
	c1.7-0.2,3.3-0.4,4.9-0.7c3.1-0.6,6.3-0.2,9.3,0.9c7,0,11.3-0.1,11.3-0.1s-7.3-96.2-21.1-102.8c-0.1,0-0.2-0.1-0.3-0.2
	c8.8,28.3,13.4,89,13.4,89s-82.4,2-113.4-13.2s-67.2,5.9-67.2,5.9C27.4,195.1,58.3,195.8,58.3,195.8z"/>
<path class="st1" d="M356.6,675c12.1-37,41.1-139.4,18.3-207.5c-9.9-29.4-19-48.1-26.8-60.1c5.8,11.3,12.1,26.3,18.8,46.1
	c28.3,84.4-23.1,221.5-23.1,221.5H356.6z"/>
<path class="st1" d="M99.2,394.2c8.1,0.8,15.9,3.1,23.2,6.7c27.1,13.5,47.2,22.1,71.6,12.2c5.6-2.9,11.8-6.6,19-10.9
	c0.6-0.4,1.1-0.8,1.7-1.2c34.9-26.4,83.1-60.6,129.9-40.2c0,0-9.5-9.3-20.1-18.1c-42.9-10.5-85.9,20.2-117.8,44.3
	c-34.9,26.4-58,17.1-92.3,0s-69.2,2-69.2,2C70.6,388.2,87,390.4,99.2,394.2z"/>
<path class="st1" d="M166.1,99.7c0.8,1.3,1.7,2.4,2.7,3.5C168,101.9,167.1,100.8,166.1,99.7z"/>
<path class="st1" d="M286.5,207.1c1,1,2,2,2.9,3.1c-2.9-6.9-6.5-12.9-10.9-17.1c-21.8-20.4-57.3-19.1-57.3-19.1l44.6,20.5
	C273.5,197.3,280.5,201.6,286.5,207.1z"/>
<path class="st1" d="M333.9,118c2.7,3.9,1.2,20.4-1.3,37.2c-5.2,34.5,0.5,69.7,16.3,100.7c2.1,4.2,4.4,8.2,7,12.1
	c-15.1-30.6-20.4-65.1-15.4-98.8c2.5-16.9,4-33.4,1.3-37.2c-5.9-8.6-31-61.3-33-75.1c-0.6-5.4-0.7-10.8-0.4-16.2
	C303.4,26.1,302.9,0,302.9,0s-4,29-2,42.8S328,109.4,333.9,118z"/>
<path class="st1" d="M349.8,127.4c0,0,6.4-13.1,15.3-22.5c0.7-2.6,1.1-4.1,1.1-4.1s22.4-18.5,30.3-34.3c6.1-12.2,1.6-31.6-0.8-39.7
	c3.9,18.7-15.3,50.7-28.2,56.2c-11.2,4.8-21.1,21.7-24.5,28C347,120.5,349.8,127.4,349.8,127.4z"/>
<path class="st1" d="M395.7,26.9c-0.3-1.3-0.7-2.6-1.2-3.8C394.5,23.1,395,24.5,395.7,26.9z"/>
<path class="st1" d="M162.9,93.3c5.8,0.7,12.5,2.5,17.6,6.6c-0.3-1.1-0.6-2.1-0.9-3c-5.9-21.8-37.6-17.8-37.6-17.8
	C156.4,80.9,160.1,87.1,162.9,93.3z"/>
<path class="st0" d="M784.5,641.1c-9.8,15.1-7.1,34.3-7.1,34.3s18.6-5.3,28.5-20.3c9.8-15.1,7.1-34.3,7.1-34.3
	S794.4,626.1,784.5,641.1z"/>
<path class="st2" d="M791.9,643.8c-0.8,18-14.1,32-14.1,32s-12.1-15.1-11.3-33.1s14.1-32,14.1-32S792.7,625.8,791.9,643.8z"/>
<path class="st3" d="M618.8,530c0,0,11.3-11.9,15.9-9.5s-13.3,13-13.3,13L618.8,530z"/>
<path class="st1" d="M618.8,530c0,0,11.3-11.9,15.9-9.5s-13.3,13-13.3,13L618.8,530z"/>
<path class="st4" d="M584.2,504.1c0,0-4.2,7.5-3.1,15.5c1.1,8,11,33.8,14.4,33.4S624,534,624,534l-4.8-6.7L601,538.5
	C601,538.5,598.2,498.8,584.2,504.1z"/>
<path class="st5" d="M652.1,522.3l-28.5,15.7c-0.6,0.4-1.5,0.2-1.9-0.4c0-0.1-0.1-0.1-0.1-0.2l-7-14.6c-0.3-0.9,0.1-1.8,0.9-2.2
	l23.7-12.2c0.6-0.4,1.4-0.2,1.8,0.3l11.8,11.2C653.4,520.7,653.1,521.7,652.1,522.3C652.2,522.2,652.2,522.2,652.1,522.3z"/>
<polygon class="st2" points="650.2,520.1 623.5,535.4 616.3,522.6 639.3,510.1 "/>
<ellipse transform="matrix(0.6407 -0.7678 0.7678 0.6407 -170.2909 667.0432)" class="st6" cx="627.5" cy="515.5" rx="0.4" ry="0.3"/>
<ellipse transform="matrix(0.6407 -0.7678 0.7678 0.6407 -176.8016 679.3881)" class="st6" cx="637.5" cy="528.6" rx="0.3" ry="0.2"/>
<path class="st1" d="M584.2,504.1c0,0-4.2,7.5-3.1,15.5c1.1,8,11,33.8,14.4,33.4S624,534,624,534l-4.8-6.7L601,538.5
	C601,538.5,598.2,498.8,584.2,504.1z"/>
<path class="st3" d="M611.1,532.3c0,0,12.8-10.2,17.1-7.3c4.3,3-14.9,11.1-14.9,11.1L611.1,532.3z"/>
<circle class="st3" cx="594" cy="478.9" r="12.4"/>
<path class="st3" d="M636.7,565.1c0,0,13.2,1.7,12.8,9.8s-10.2,41.8-10.2,41.8l-0.9,13.2c0,0,0.9,22.2-1.7,21.8
	c-2.6-0.4-8.5-15.8-8.5-15.8s-7.3-4.7-3.8-9s6-3.8,5.1-8.5s-0.4-24.3,2.1-30.3c2.6-6,4.1-9.3,4.1-9.3l-8.3-0.5L636.7,565.1z"/>
<path class="st1" d="M636.7,565.1c0,0,13.2,1.7,12.8,9.8s-10.2,41.8-10.2,41.8l-0.9,13.2c0,0,0.9,22.2-1.7,21.8
	c-2.6-0.4-8.5-15.8-8.5-15.8s-7.3-4.7-3.8-9s6-3.8,5.1-8.5s-0.4-24.3,2.1-30.3c2.6-6,4.1-9.3,4.1-9.3l-8.3-0.5L636.7,565.1z"/>
<path class="st3" d="M637.6,567.3c0,0,12.8,3,14.1,11.5s7.7,33.7,7.7,33.7l6.8,15.8c0,0,10.7,19.2,6,18.8
	c-4.7-0.4-11.1-9.8-13.2-9.8c-2.1,0-8.5-2.6-8.1-4.3c0.4-1.7,3.4-6.8,3.4-6.8l-10.3-18c-2-3.5-3.5-7.2-4.5-11.1
	c-1.1-4.2-2.3-9.4-2.3-11c0-3-8.5-4.3-8.5-4.3L637.6,567.3z"/>
<path class="st5" d="M595.8,540l6,17.1c0,0,9.4,2.6,16.2,4.7s19.6-0.9,20.9,4.3c1.3,5.1-2.6,14.1-6.4,16.2c-3.8,2.1-6,4.3-18.3,0.9
	c-12.4-3.4-41.8-4.3-41.8-4.3c-2.9,1.7-6.1,2.7-9.4,3c-5.5,0.4-6.8,0.9-8.5-0.4c-1.7-1.3,0.9-1.3,1.7-4.7c0.9-3.4,1.3-2.1,5.1-6
	s6.8-15.4,9-19.2c2.1-3.8,3.4-11.5,3.4-11.5L595.8,540z"/>
<path class="st3" d="M594.9,489.2c-3.1,2.3-5,5.9-5.1,9.8c0,6.4-12.8-6.8-12.8-6.8s6.8-8.5,6.8-11.1S594.9,489.2,594.9,489.2z"/>
<path class="st4" d="M578.7,486.6c0,0,7.7,3,9.4,7.3c1.7,4.3,8.1,13.2,8.1,13.2s9,9.4,6,19.6c-3,10.2-5.5,12.8-5.5,14.5
	c0,1.7-4.3,4.7-7.7,4.3c-3.4-0.4-16.2-2.1-17.1-3.8c-0.9-1.7-6-26-2.6-35C572.1,499.8,575.2,493.1,578.7,486.6z"/>
<path class="st5" d="M597.6,479.5c2.8,0.7,5.5-1.1,7.8-2.9c1.3-1,2.7-2.4,2.3-4c-0.4-1.4-2-2.2-2.3-3.7c-0.2-1,0.4-2,0.5-3
	c-0.1-1.6-1-3-2.5-3.6c-1.3-0.7-2.9-1-4.3-1.7c-2.1-1-3.9-2.8-6.1-3.4c-3.1-0.8-6.2,0.9-9.4,1.1c-1.9,0.1-3.9-0.3-5.8,0
	c-3.7,0.8-6.5,4-6.6,7.8c0,1.4,0.2,2.9-0.6,4c-0.3,0.4-0.7,0.7-1.1,1c-2.8,2.3-4.1,6.1-4.3,9.8c-0.1,1.8,0.3,4,1.9,4.7
	c0.9,0.3,1.8,0.4,2.7,0.4c0.9,0,1.8,0.4,2.4,1.1c0.7,1.3-0.4,3.2,0.6,4.3c0.7,0.8,2.1,0.6,3-0.2c0.8-0.7,1.4-1.8,2.2-2.5
	c1.5-1.5,3.8-1.8,6-2c0.6,0,1.2-0.2,1.7-0.6c0.4-0.4,0.6-0.9,0.7-1.5c0.3-1.3,0.3-2.6,0-3.9c-0.1-0.4-0.2-0.8,0-1.2
	c0.1-0.3,0.4-0.5,0.6-0.7c1.3-1,3.6-2.4,5.3-2.2C594.2,477.1,595.7,479,597.6,479.5z"/>
<path class="st4" d="M580.4,502c0,0-5.1,6.8-5.1,14.9c0,8.1,6.4,35,9.8,35s30.7-14.9,30.7-14.9l-3.8-7.3l-19.6,8.5
	C592.3,538.3,594.9,498.6,580.4,502z"/>
<rect x="540.3" y="579" class="st2" width="98" height="19"/>
<path class="st0" d="M589.3,599c-4.4,0-8-3.6-8-8V366c0-4.4,3.6-8,8-8c1.8,0,3.6,0.6,5.1,1.8l-1.3,1.6c-2.6-2.1-6.3-1.7-8.4,0.9
	c-0.9,1.1-1.3,2.4-1.3,3.8v225c0,3.3,2.7,6,6,6V599z"/>
<rect x="49.3" y="674" class="st0" width="806" height="2"/>
<ellipse transform="matrix(0.7797 -0.6262 0.6262 0.7797 -168.8374 462.1476)" class="st2" cx="572.3" cy="471" rx="1" ry="3"/>
<path class="st0" d="M488.5,641.1c-9.8,15.1-7.1,34.3-7.1,34.3s18.6-5.3,28.5-20.3c9.8-15.1,7.1-34.3,7.1-34.3
	S498.4,626.1,488.5,641.1z"/>
<path class="st2" d="M495.9,643.8c-0.8,18-14.1,32-14.1,32s-12.1-15.1-11.3-33.1s14.1-32,14.1-32S496.7,625.8,495.9,643.8z"/>
<path class="st0" d="M326.7,646.8c4.7,17.4,20.8,28.1,20.8,28.1s8.5-17.4,3.8-34.8c-4.7-17.4-20.8-28.1-20.8-28.1
	S322,629.5,326.7,646.8z"/>
<path class="st2" d="M333.6,643.1c12.9,12.6,14.5,31.9,14.5,31.9s-19.3-1.1-32.2-13.6c-12.9-12.6-14.5-31.9-14.5-31.9
	S320.8,630.6,333.6,643.1z"/>
<path class="st2" d="M290.9,172c-1.1,18-14.7,31.7-14.7,31.7s-11.8-15.4-10.7-33.3s14.7-31.7,14.7-31.7S292,154.1,290.9,172z"/>
<path class="st2" d="M149,58.5c15.2,9.6,20.8,28.1,20.8,28.1s-19.1,3-34.4-6.6s-20.8-28.1-20.8-28.1S133.8,48.9,149,58.5z"/>
<path class="st2" d="M115,277.5c15.2,9.6,20.8,28.1,20.8,28.1s-19.1,3-34.4-6.6s-20.8-28.1-20.8-28.1S99.8,267.9,115,277.5z"/>
<path class="st2" d="M196,361.5c15.2,9.6,20.8,28.1,20.8,28.1s-19.1,3-34.4-6.6s-20.8-28.1-20.8-28.1S180.8,351.9,196,361.5z"/>
<path class="st2" d="M424.5,90.5c-4.6,17.4-20.6,28.3-20.6,28.3s-8.6-17.4-4-34.8s20.6-28.3,20.6-28.3S429.1,73.1,424.5,90.5z"/>
<path class="st2" d="M569.3,104.1c-5.4,17.2-21.9,27.3-21.9,27.3s-7.8-17.7-2.4-34.9S567,69.2,567,69.2S574.7,86.9,569.3,104.1z"/>
<path class="st2" d="M725.9,295.2c-9.8,15.1-28.4,20.4-28.4,20.4s-2.8-19.2,7-34.3s28.4-20.4,28.4-20.4S735.7,280.1,725.9,295.2z"/>
</svg>
